# File created by Blade
# Date/Time:  Mon Sep 22 16:09:39 2014
# Frame Rate: 120.000 fps
#------------------------------------------------------
:FULLY-SPECIFIED
:DEGREES
1120
root 2.392356 36.994930 2.142768 1.251261 -4.280033 1.292761
RightUpLeg 6.168400 -5.140184 -1.971275
RightLeg -4.896398 -0.000000 0.000000
RightFoot -13.109221 -15.452763 15.664211
RightToeBase 14.930181 -0.000000 -0.000000
LeftUpLeg 4.264960 1.622063 2.398657
LeftLeg -1.787593 -0.000000 0.000000
LeftFoot -10.370808 13.864546 -17.299538
LeftToeBase 9.532484 -0.000000 -0.000000
Spine -0.191713 5.426147 -1.299399
RightShoulder 7.268898 -26.708851 -8.225266
RightArm 39.828557 -35.742623 53.883637
RightForeArm 85.390691 0.000000 88.572665
RightHand 1.725294 -0.000000 -7.967353
RightHandThumb1 -24.326973 -0.000000 -32.862282
LeftShoulder -19.086428 37.460209 -3.812439
LeftArm 45.852377 23.365002 -55.899776
LeftForeArm 20.605082 -0.000000 30.455940
LeftHand -13.089292 -0.000000 -11.347057
LeftHandThumb1 -26.253704 0.000000 33.147579
Head 4.152519 -2.088876 5.855080
1121
root 2.390767 36.995169 2.140193 1.260105 -4.281143 1.300724
RightUpLeg 6.158480 -5.152772 -1.976397
RightLeg -4.904453 -0.000000 0.000000
RightFoot -13.107288 -15.446268 15.669231
RightToeBase 14.930663 -0.000000 -0.000000
LeftUpLeg 4.247178 1.640260 2.394325
LeftLeg -1.778142 -0.000000 0.000000
LeftFoot -10.351715 13.849235 -17.278081
LeftToeBase 9.523521 -0.000000 -0.000000
Spine -0.210854 5.402937 -1.288558
RightShoulder 7.262267 -26.687399 -8.214709
RightArm 39.637840 -35.610353 54.095465
RightForeArm 85.273787 0.000000 88.601487
RightHand 1.749230 -0.000000 -7.805161
RightHandThumb1 -24.326973 -0.000000 -32.862282
LeftShoulder -19.087882 37.476279 -3.814158
LeftArm 45.836276 23.310782 -55.907283
LeftForeArm 20.651483 -0.000000 30.476197
LeftHand -13.134130 -0.000000 -11.374831
LeftHandThumb1 -26.253704 0.000000 33.147579
Head 4.181856 -2.083572 5.836009
1122
root 2.389129 36.994731 2.137992 1.270520 -4.278098 1.309605
RightUpLeg 6.154482 -5.149860 -1.980564
RightLeg -4.921198 -0.000000 0.000000
RightFoot -13.102782 -15.447682 15.671070
RightToeBase 14.936818 -0.000000 -0.000000
LeftUpLeg 4.231106 1.650026 2.387303
LeftLeg -1.777083 -0.000000 0.000000
LeftFoot -10.356554 13.843131 -17.292948
LeftToeBase 9.543218 -0.000000 -0.000000
Spine -0.235999 5.364225 -1.279321
RightShoulder 7.277495 -26.702361 -8.220671
RightArm 39.475873 -35.466781 54.310161
RightForeArm 85.133841 -0.000000 88.634799
RightHand 1.726905 -0.000000 -7.650234
RightHandThumb1 -24.326973 -0.000000 -32.862282
LeftShoulder -19.078976 37.451685 -3.792115
LeftArm 45.769177 23.289619 -55.939976
LeftForeArm 20.679512 -0.000000 30.497245
LeftHand -13.111859 -0.000000 -11.121721
LeftHandThumb1 -26.253704 0.000000 33.147579
Head 4.207118 -2.072314 5.817216
1123
root 2.387413 36.994887 2.135491 1.280579 -4.274716 1.316908
RightUpLeg 6.142739 -5.171761 -1.982659
RightLeg -4.925401 -0.000000 0.000000
RightFoot -13.075435 -15.451260 15.621195
RightToeBase 14.876944 -0.000000 -0.000000
LeftUpLeg 4.211730 1.648171 2.382082
LeftLeg -1.767862 -0.000000 0.000000
LeftFoot -10.350116 13.850180 -17.280566
LeftToeBase 9.528183 -0.000000 -0.000000
Spine -0.255018 5.320499 -1.266804
RightShoulder 7.291738 -26.721434 -8.225160
RightArm 39.315122 -35.315956 54.523549
RightForeArm 85.019940 -0.000000 88.684559
RightHand 1.652776 0.000000 -7.586887
RightHandThumb1 -24.326973 -0.000000 -32.862282
LeftShoulder -19.101515 37.461348 -3.797500
LeftArm 45.757389 23.248562 -55.941801
LeftForeArm 20.640382 -0.000000 30.519374
LeftHand -13.111586 -0.000000 -11.127962
LeftHandThumb1 -26.253704 0.000000 33.147579
Head 4.232135 -2.055198 5.799991
1124
root 2.384743 36.995116 2.133418 1.284652 -4.270516 1.316071
RightUpLeg 6.141905 -5.184067 -1.980480
RightLeg -4.935002 -0.000000 0.000000
RightFoot -13.075653 -15.430878 15.625191
RightToeBase 14.913556 -0.000000 -0.000000
LeftUpLeg 4.197512 1.659116 2.388941
LeftLeg -1.754582 -0.000000 0.000000
LeftFoot -10.347676 13.828831 -17.289023
LeftToeBase 9.520544 -0.000000 -0.000000
Spine -0.262391 5.294268 -1.242927
RightShoulder 7.290649 -26.708850 -8.225221
RightArm 39.119288 -35.173709 54.774470
RightForeArm 84.907171 0.000000 88.735234
RightHand 1.473255 -0.000000 -7.433834
RightHandThumb1 -24.326973 -0.000000 -32.862282
LeftShoulder -19.097601 37.460115 -3.792529
LeftArm 45.733994 23.216241 -55.941086
LeftForeArm 20.618338 -0.000000 30.548309
LeftHand -13.122759 -0.000000 -11.114544
LeftHandThumb1 -26.253704 0.000000 33.147579
Head 4.250644 -2.041566 5.776707
1125
root 2.383011 36.995160 2.131744 1.288917 -4.263434 1.314336
RightUpLeg 6.145088 -5.182365 -1.973145
RightLeg -4.957933 -0.000000 0.000000
RightFoot -13.067239 -15.445420 15.642929
RightToeBase 14.895887 -0.000000 -0.000000
LeftUpLeg 4.183595 1.660218 2.393426
LeftLeg -1.742646 -0.000000 0.000000
LeftFoot -10.348237 13.825472 -17.289078
LeftToeBase 9.519770 -0.000000 -0.000000
Spine -0.275233 5.258264 -1.216863
RightShoulder 7.296659 -26.716105 -8.216467
RightArm 38.955864 -35.035909 54.965881
RightForeArm 84.788504 0.000000 88.798783
RightHand 1.863996 -0.000000 -7.438967
RightHandThumb1 -24.326973 -0.000000 -32.862282
LeftShoulder -19.099707 37.455486 -3.786597
LeftArm 45.710356 23.205168 -55.938132
LeftForeArm 20.677472 -0.000000 30.578082
LeftHand -13.175964 0.000000 -11.282428
LeftHandThumb1 -26.253704 0.000000 33.147579
Head 4.277879 -2.030265 5.765200
1126
root 2.381116 36.995212 2.129794 1.291423 -4.263378 1.317778
RightUpLeg 6.138760 -5.186937 -1.972091
RightLeg -4.955444 -0.000000 0.000000
RightFoot -13.068745 -15.450127 15.644416
RightToeBase 14.919126 -0.000000 -0.000000
LeftUpLeg 4.175816 1.673351 2.393077
LeftLeg -1.740249 -0.000000 0.000000
LeftFoot -10.349555 13.815182 -17.293764
LeftToeBase 9.534773 -0.000000 -0.000000
Spine -0.279374 5.250632 -1.198474
RightShoulder 7.263674 -26.732899 -8.183718
RightArm 38.840374 -34.875068 55.196682
RightForeArm 84.848451 -0.000000 88.858396
RightHand 1.940776 -0.000000 -7.752928
RightHandThumb1 -24.326973 -0.000000 -32.862282
LeftShoulder -19.081743 37.461136 -3.776984
LeftArm 45.701522 23.184834 -55.921112
LeftForeArm 20.680288 0.000000 30.614374
LeftHand -13.173198 -0.000000 -11.339261
LeftHandThumb1 -26.253704 0.000000 33.147579
Head 4.289173 -2.031451 5.750618
1127
root 2.379272 36.995194 2.127461 1.295799 -4.260064 1.319787
RightUpLeg 6.132682 -5.193683 -1.967749
RightLeg -4.959211 -0.000000 0.000000
RightFoot -13.070314 -15.462822 15.632359
RightToeBase 14.898795 -0.000000 -0.000000
LeftUpLeg 4.166574 1.667349 2.393453
LeftLeg -1.738511 -0.000000 0.000000
LeftFoot -10.348371 13.822624 -17.294151
LeftToeBase 9.558482 -0.000000 -0.000000
Spine -0.287736 5.217717 -1.182885
RightShoulder 7.270607 -26.721195 -8.163826
RightArm 38.656838 -34.729270 55.454364
RightForeArm 84.690601 0.000000 88.904340
RightHand 1.242978 -0.000000 -7.411885
RightHandThumb1 -24.326973 -0.000000 -32.862282
LeftShoulder -19.083551 37.470521 -3.762858
LeftArm 45.696545 23.171792 -55.931525
LeftForeArm 20.644940 -0.000000 30.631343
LeftHand -13.148003 -0.000000 -11.239401
LeftHandThumb1 -26.253704 0.000000 33.147579
Head 4.304499 -2.003271 5.756800
1128
root 2.378249 36.995305 2.125680 1.295996 -4.254410 1.323178
RightUpLeg 6.131360 -5.210414 -1.971912
RightLeg -4.960995 -0.000000 0.000000
RightFoot -13.055949 -15.454511 15.600955
RightToeBase 14.911541 -0.000000 -0.000000
LeftUpLeg 4.154051 1.664934 2.394963
LeftLeg -1.721649 -0.000000 0.000000
LeftFoot -10.336538 13.804398 -17.283666
LeftToeBase 9.518754 -0.000000 -0.000000
Spine -0.289403 5.190867 -1.165849
RightShoulder 7.254337 -26.720127 -8.121186
RightArm 38.485490 -34.595896 55.672146
RightForeArm 84.664192 -0.000000 88.959068
RightHand 1.191602 -0.000000 -7.310630
RightHandThumb1 -24.326973 -0.000000 -32.862282
LeftShoulder -19.074125 37.460129 -3.750318
LeftArm 45.667206 23.144938 -55.954098
LeftForeArm 20.644763 -0.000000 30.667134
LeftHand -13.155289 -0.000000 -11.199393
LeftHandThumb1 -26.253704 0.000000 33.147579
Head 4.315425 -1.979999 5.762157
1129
root 2.376942 36.995704 2.124621 1.294736 -4.250281 1.322620
RightUpLeg 6.131714 -5.228843 -1.971496
RightLeg -4.963777 -0.000000 0.000000
RightFoot -13.039140 -15.390090 15.703007
RightToeBase 14.801225 -0.000000 -0.000000
LeftUpLeg 4.148029 1.661217 2.396647
LeftLeg -1.709579 -0.000000 0.000000
LeftFoot -10.341662 13.804075 -17.291190
LeftToeBase 9.512149 -0.000000 -0.000000
Spine -0.292143 5.181944 -1.145919
RightShoulder 7.224443 -26.701702 -8.069810
RightArm 38.266846 -34.491963 55.853928
RightForeArm 84.756005 -0.000000 89.049002
RightHand 1.583432 0.000000 -7.324683
RightHandThumb1 -24.326973 -0.000000 -32.862282
LeftShoulder -19.046663 37.457248 -3.732978
LeftArm 45.654687 23.125582 -55.954964
LeftForeArm 20.673061 -0.000000 30.708227
LeftHand -13.222420 0.000000 -11.235376
LeftHandThumb1 -26.253704 0.000000 33.147579
Head 4.328348 -1.954909 5.784116
